<svg width="32" height="32" viewBox="0 0 32 32" fill="none" xmlns="http://www.w3.org/2000/svg">
  <rect width="32" height="32" rx="16" fill="#FF3B30"/>
  <path d="M16 8C11.5817 8 8 11.5817 8 16C8 20.4183 11.5817 24 16 24C20.4183 24 24 20.4183 24 16C24 11.5817 20.4183 8 16 8ZM18.5 19.5C18.5 19.7761 18.2761 20 18 20H14C13.7239 20 13.5 19.7761 13.5 19.5V18.5C13.5 18.2239 13.7239 18 14 18H18C18.2761 18 18.5 18.2239 18.5 18.5V19.5ZM19.5 15.5C19.5 16.0523 19.0523 16.5 18.5 16.5C17.9477 16.5 17.5 16.0523 17.5 15.5C17.5 14.9477 17.9477 14.5 18.5 14.5C19.0523 14.5 19.5 14.9477 19.5 15.5ZM14.5 15.5C14.5 16.0523 14.0523 16.5 13.5 16.5C12.9477 16.5 12.5 16.0523 12.5 15.5C12.5 14.9477 12.9477 14.5 13.5 14.5C14.0523 14.5 14.5 14.9477 14.5 15.5Z" fill="white"/>
</svg>